<mxfile host="drawio-plugin" modified="2024-02-05T07:38:19.854Z" agent="5.0 (X11; Linux x86_64) AppleWebKit/537.36 (KHTML, like Gecko) Chrome/111.0.0.0 Safari/537.36" etag="S7psH43PFLBPAl8jiRGV" version="20.5.3" type="embed"><diagram id="7xv5iA07_mF9e4DVNpQf" name="Page-1"><mxGraphModel dx="1139" dy="1680" grid="1" gridSize="10" guides="1" tooltips="1" connect="1" arrows="1" fold="1" page="1" pageScale="1" pageWidth="827" pageHeight="1169" math="0" shadow="0"><root><mxCell id="0"/><mxCell id="1" parent="0"/><mxCell id="8" value="Symfony Components" style="swimlane;horizontal=0;whiteSpace=wrap;html=1;" parent="1" vertex="1"><mxGeometry x="20" y="-110" width="330" height="730" as="geometry"/></mxCell><mxCell id="7" value="Symfony&#10;Http Foundation" style="shape=module;align=left;spacingLeft=20;align=center;verticalAlign=top;fillColor=#f8cecc;strokeColor=#b85450;" parent="8" vertex="1"><mxGeometry x="45" y="645" width="120" height="50" as="geometry"/></mxCell><mxCell id="6" value="Symfony&#10;Http Kernel" style="shape=module;align=left;spacingLeft=20;align=center;verticalAlign=top;fillColor=#f8cecc;strokeColor=#b85450;" parent="8" vertex="1"><mxGeometry x="185" y="645" width="100" height="50" as="geometry"/></mxCell><mxCell id="64" value="" style="shape=providedRequiredInterface;html=1;verticalLabelPosition=bottom;sketch=0;" parent="8" vertex="1"><mxGeometry x="260" y="124" width="20" height="20" as="geometry"/></mxCell><mxCell id="78" value="" style="rounded=0;orthogonalLoop=1;jettySize=auto;html=1;endArrow=none;endFill=0;" parent="8" source="65" target="67" edge="1"><mxGeometry relative="1" as="geometry"/></mxCell><mxCell id="65" value="Symfony&#10;Console" style="shape=module;align=left;spacingLeft=20;align=center;verticalAlign=top;fillColor=#f8cecc;strokeColor=#b85450;" parent="8" vertex="1"><mxGeometry x="79" y="485" width="100" height="40" as="geometry"/></mxCell><mxCell id="68" value="" style="shape=providedRequiredInterface;html=1;verticalLabelPosition=bottom;sketch=0;" parent="8" vertex="1"><mxGeometry x="260" y="373" width="20" height="20" as="geometry"/></mxCell><mxCell id="67" value="" style="shape=providedRequiredInterface;html=1;verticalLabelPosition=bottom;sketch=0;" parent="8" vertex="1"><mxGeometry x="260" y="495" width="20" height="20" as="geometry"/></mxCell><mxCell id="69" value="" style="shape=providedRequiredInterface;html=1;verticalLabelPosition=bottom;sketch=0;" parent="8" vertex="1"><mxGeometry x="260" y="525" width="20" height="20" as="geometry"/></mxCell><mxCell id="77" value="" style="edgeStyle=orthogonalEdgeStyle;rounded=0;orthogonalLoop=1;jettySize=auto;html=1;endArrow=none;endFill=0;" parent="8" source="70" target="71" edge="1"><mxGeometry relative="1" as="geometry"/></mxCell><mxCell id="70" value="Symfony&#10;Messenger" style="shape=module;align=left;spacingLeft=20;align=center;verticalAlign=top;fillColor=#f8cecc;strokeColor=#b85450;" parent="8" vertex="1"><mxGeometry x="79" y="423" width="100" height="40" as="geometry"/></mxCell><mxCell id="71" value="" style="shape=providedRequiredInterface;html=1;verticalLabelPosition=bottom;sketch=0;" parent="8" vertex="1"><mxGeometry x="260" y="433" width="20" height="20" as="geometry"/></mxCell><mxCell id="73" value="" style="shape=providedRequiredInterface;html=1;verticalLabelPosition=bottom;sketch=0;" parent="8" vertex="1"><mxGeometry x="260" y="25" width="20" height="20" as="geometry"/></mxCell><mxCell id="91" value="ResponseFactory" style="html=1;fillColor=#dae8fc;strokeColor=#6c8ebf;" parent="8" vertex="1"><mxGeometry x="207" y="213" width="110" height="40" as="geometry"/></mxCell><mxCell id="92" value="Endpoint/Templating" style="html=1;fillColor=#dae8fc;strokeColor=#6c8ebf;" parent="8" vertex="1"><mxGeometry x="207" y="65" width="110" height="40" as="geometry"/></mxCell><mxCell id="93" value="KernelListener" style="html=1;fillColor=#dae8fc;strokeColor=#6c8ebf;" parent="8" vertex="1"><mxGeometry x="130" y="570" width="110" height="40" as="geometry"/></mxCell><mxCell id="94" value="" style="endArrow=none;html=1;rounded=1;entryX=0.03;entryY=0.75;entryDx=0;entryDy=0;endFill=0;entryPerimeter=0;exitX=0.565;exitY=0.01;exitDx=0;exitDy=0;exitPerimeter=0;" parent="8" source="93" target="69" edge="1"><mxGeometry width="50" height="50" relative="1" as="geometry"><mxPoint x="150" y="650" as="sourcePoint"/><mxPoint x="195" y="620" as="targetPoint"/><Array as="points"><mxPoint x="192" y="540"/></Array></mxGeometry></mxCell><mxCell id="79" value="" style="endArrow=none;html=1;rounded=1;entryX=0.5;entryY=1;entryDx=0;entryDy=0;endFill=0;exitX=0.5;exitY=0;exitDx=0;exitDy=0;" parent="8" target="93" edge="1" source="7"><mxGeometry width="50" height="50" relative="1" as="geometry"><mxPoint x="140" y="640" as="sourcePoint"/><mxPoint x="290" y="480" as="targetPoint"/><Array as="points"><mxPoint x="105" y="630"/><mxPoint x="185" y="630"/></Array></mxGeometry></mxCell><mxCell id="108" value="" style="endArrow=none;html=1;rounded=1;entryX=0.5;entryY=1;entryDx=0;entryDy=0;endFill=0;exitX=0.544;exitY=-0.005;exitDx=0;exitDy=0;exitPerimeter=0;" edge="1" parent="8" source="6" target="93"><mxGeometry width="50" height="50" relative="1" as="geometry"><mxPoint x="145" y="655" as="sourcePoint"/><mxPoint x="195" y="620" as="targetPoint"/><Array as="points"><mxPoint x="240" y="630"/><mxPoint x="185" y="630"/></Array></mxGeometry></mxCell><mxCell id="9" value="Base components" style="swimlane;whiteSpace=wrap;html=1;" parent="1" vertex="1"><mxGeometry x="370" y="470" width="590" height="150" as="geometry"/></mxCell><mxCell id="5" value="Teknoo&#10;Recipe" style="shape=module;align=left;spacingLeft=20;align=center;verticalAlign=top;fillColor=#f8cecc;strokeColor=#b85450;" parent="9" vertex="1"><mxGeometry x="363" y="30" width="100" height="50" as="geometry"/></mxCell><mxCell id="10" value="PSR&#10;Container" style="shape=module;align=left;spacingLeft=20;align=center;verticalAlign=top;fillColor=#f8cecc;strokeColor=#b85450;" parent="9" vertex="1"><mxGeometry x="10" y="30" width="100" height="50" as="geometry"/></mxCell><mxCell id="11" value="PSR&#10;Http Message" style="shape=module;align=left;spacingLeft=20;align=center;verticalAlign=top;fillColor=#f8cecc;strokeColor=#b85450;" parent="9" vertex="1"><mxGeometry x="128" y="30" width="100" height="50" as="geometry"/></mxCell><mxCell id="12" value="PSR&#10;Http Factory" style="shape=module;align=left;spacingLeft=20;align=center;verticalAlign=top;fillColor=#f8cecc;strokeColor=#b85450;" parent="9" vertex="1"><mxGeometry x="245" y="30" width="100" height="50" as="geometry"/></mxCell><mxCell id="107" value="PSR Server &#10;Request" style="shape=module;align=left;spacingLeft=20;align=center;verticalAlign=top;fillColor=#f8cecc;strokeColor=#b85450;" vertex="1" parent="9"><mxGeometry x="480" y="30" width="100" height="50" as="geometry"/></mxCell><mxCell id="4" value="Teknoo&#10;Immutable" style="shape=module;align=left;spacingLeft=20;align=center;verticalAlign=top;fillColor=#f8cecc;strokeColor=#b85450;" parent="9" vertex="1"><mxGeometry x="10" y="90" width="100" height="50" as="geometry"/></mxCell><mxCell id="13" value="Common contracts" style="swimlane;horizontal=0;whiteSpace=wrap;html=1;" parent="1" vertex="1"><mxGeometry x="370" y="-110" width="165" height="570" as="geometry"/></mxCell><mxCell id="14" value="«interface»&lt;br&gt;&lt;b&gt;Middleware&lt;/b&gt;" style="html=1;fillColor=#ffe6cc;strokeColor=#d79b00;" parent="13" vertex="1"><mxGeometry x="38" y="413" width="110" height="40" as="geometry"/></mxCell><mxCell id="15" value="«interface»&lt;br&gt;&lt;b&gt;Response&lt;/b&gt;" style="html=1;fillColor=#ffe6cc;strokeColor=#d79b00;" parent="13" vertex="1"><mxGeometry x="38" y="263" width="110" height="40" as="geometry"/></mxCell><mxCell id="16" value="«interface»&lt;br&gt;&lt;b&gt;EndPoint&lt;/b&gt;&lt;span style=&quot;color: rgba(0, 0, 0, 0); font-family: monospace; font-size: 0px; text-align: start;&quot;&gt;%3CmxGraphModel%3E%3Croot%3E%3CmxCell%20id%3D%220%22%2F%3E%3CmxCell%20id%3D%221%22%20parent%3D%220%22%2F%3E%3CmxCell%20id%3D%222%22%20value%3D%22%C2%ABinterface%C2%BB%26lt%3Bbr%26gt%3B%26lt%3Bb%26gt%3BResponse%26lt%3B%2Fb%26gt%3B%22%20style%3D%22html%3D1%3B%22%20vertex%3D%221%22%20parent%3D%221%22%3E%3CmxGeometry%20x%3D%22414%22%20y%3D%22360%22%20width%3D%22110%22%20height%3D%2240%22%20as%3D%22geometry%22%2F%3E%3C%2FmxCell%3E%3C%2Froot%3E%3C%2FmxGraphModel%3E&lt;/span&gt;" style="html=1;fillColor=#ffe6cc;strokeColor=#d79b00;" parent="13" vertex="1"><mxGeometry x="38" y="213" width="110" height="40" as="geometry"/></mxCell><mxCell id="17" value="«interface»&lt;br&gt;&lt;div style=&quot;text-align: center;&quot;&gt;&lt;span style=&quot;text-align: start; background-color: initial;&quot;&gt;&lt;b&gt;Template/Engine&lt;/b&gt;&lt;/span&gt;&lt;span style=&quot;color: rgba(0, 0, 0, 0); font-family: monospace; font-size: 0px; text-align: start; background-color: initial;&quot;&gt;%3CmxGraphModel%3E%3Croot%3E%3CmxCell%20id%3D%220%22%2F%3E%3CmxCell%20id%3D%221%22%20parent%3D%220%22%2F%3E%3CmxCell%20id%3D%222%22%20value%3D%22%C2%ABinterface%C2%BB%26lt%3Bbr%26gt%3B%26lt%3Bb%26gt%3BResponse%26lt%3B%2Fb%26gt%3B%22%20style%3D%22html%3D1%3B%22%20vertex%3D%221%22%20parent%3D%221%22%3E%3CmxGeometry%20x%3D%22414%22%20y%3D%22360%22%20width%3D%22110%22%20height%3D%2240%22%20as%3D%22geometry%22%2F%3E%3C%2FmxCell%3E%3C%2Froot%3E%3C%2FmxGraphModel%3E&lt;/span&gt;&lt;/div&gt;" style="html=1;fillColor=#ffe6cc;strokeColor=#d79b00;" parent="13" vertex="1"><mxGeometry x="38" y="114" width="110" height="40" as="geometry"/></mxCell><mxCell id="18" value="«interface»&lt;br&gt;&lt;b&gt;Rendering&lt;/b&gt;&lt;span style=&quot;color: rgba(0, 0, 0, 0); font-family: monospace; font-size: 0px; text-align: start;&quot;&gt;%3CmxGraphModel%3E%3Croot%3E%3CmxCell%20id%3D%220%22%2F%3E%3CmxCell%20id%3D%221%22%20parent%3D%220%22%2F%3E%3CmxCell%20id%3D%222%22%20value%3D%22%C2%ABinterface%C2%BB%26lt%3Bbr%26gt%3B%26lt%3Bb%26gt%3BResponse%26lt%3B%2Fb%26gt%3B%22%20style%3D%22html%3D1%3B%22%20vertex%3D%221%22%20parent%3D%221%22%3E%3CmxGeometry%20x%3D%22414%22%20y%3D%22360%22%20width%3D%22110%22%20height%3D%2240%22%20as%3D%22geometry%22%2F%3E%3C%2FmxCell%3E%3C%2Froot%3E%3C%2FmxGraphModel%3E&lt;/span&gt;" style="html=1;fillColor=#ffe6cc;strokeColor=#d79b00;" parent="13" vertex="1"><mxGeometry x="38" y="65" width="110" height="40" as="geometry"/></mxCell><mxCell id="21" value="«interface»&lt;br&gt;&lt;b&gt;Client&lt;/b&gt;" style="html=1;fillColor=#ffe6cc;strokeColor=#d79b00;" parent="13" vertex="1"><mxGeometry x="38" y="463" width="110" height="40" as="geometry"/></mxCell><mxCell id="22" value="«interface»&lt;br&gt;&lt;b&gt;Manager&lt;/b&gt;" style="html=1;fillColor=#ffe6cc;strokeColor=#d79b00;" parent="13" vertex="1"><mxGeometry x="38" y="513" width="110" height="40" as="geometry"/></mxCell><mxCell id="23" value="«interface»&lt;br&gt;&lt;b&gt;Normalizer&lt;/b&gt;" style="html=1;fillColor=#ffe6cc;strokeColor=#d79b00;" parent="13" vertex="1"><mxGeometry x="38" y="15" width="110" height="40" as="geometry"/></mxCell><mxCell id="24" value="«interface»&lt;br&gt;&lt;b&gt;Router&lt;/b&gt;" style="html=1;fillColor=#ffe6cc;strokeColor=#d79b00;" parent="13" vertex="1"><mxGeometry x="38" y="363" width="110" height="40" as="geometry"/></mxCell><mxCell id="25" value="«interface»&lt;br&gt;&lt;b&gt;Sessioon&lt;/b&gt;" style="html=1;fillColor=#ffe6cc;strokeColor=#d79b00;" parent="13" vertex="1"><mxGeometry x="38" y="313" width="110" height="40" as="geometry"/></mxCell><mxCell id="26" value="«interface»&lt;br&gt;&lt;b&gt;Redirecting&lt;/b&gt;&lt;span style=&quot;color: rgba(0, 0, 0, 0); font-family: monospace; font-size: 0px; text-align: start;&quot;&gt;%3CmxGraphModel%3E%3Croot%3E%3CmxCell%20id%3D%220%22%2F%3E%3CmxCell%20id%3D%221%22%20parent%3D%220%22%2F%3E%3CmxCell%20id%3D%222%22%20value%3D%22%C2%ABinterface%C2%BB%26lt%3Bbr%26gt%3B%26lt%3Bb%26gt%3BResponse%26lt%3B%2Fb%26gt%3B%22%20style%3D%22html%3D1%3B%22%20vertex%3D%221%22%20parent%3D%221%22%3E%3CmxGeometry%20x%3D%22414%22%20y%3D%22360%22%20width%3D%22110%22%20height%3D%2240%22%20as%3D%22geometry%22%2F%3E%3C%2FmxCell%3E%3C%2Froot%3E%3C%2FmxGraphModel%3E&lt;/span&gt;" style="html=1;fillColor=#ffe6cc;strokeColor=#d79b00;" parent="13" vertex="1"><mxGeometry x="38" y="164" width="110" height="40" as="geometry"/></mxCell><mxCell id="63" value="Twig" style="shape=module;align=left;spacingLeft=20;align=center;verticalAlign=top;fillColor=#f8cecc;strokeColor=#b85450;" parent="13" vertex="1"><mxGeometry x="-271" y="114" width="100" height="40" as="geometry"/></mxCell><mxCell id="66" value="Symfony&#10;Router" style="shape=module;align=left;spacingLeft=20;align=center;verticalAlign=top;fillColor=#f8cecc;strokeColor=#b85450;" parent="13" vertex="1"><mxGeometry x="-271" y="363" width="100" height="40" as="geometry"/></mxCell><mxCell id="72" value="Symfony&#10;Serializer" style="shape=module;align=left;spacingLeft=20;align=center;verticalAlign=top;fillColor=#f8cecc;strokeColor=#b85450;" parent="13" vertex="1"><mxGeometry x="-270" y="15" width="100" height="40" as="geometry"/></mxCell><mxCell id="90" value="EndPoint/Routing" style="html=1;fillColor=#dae8fc;strokeColor=#6c8ebf;" parent="13" vertex="1"><mxGeometry x="-143" y="164" width="110" height="40" as="geometry"/></mxCell><mxCell id="96" value="" style="endArrow=none;html=1;rounded=0;entryX=-0.027;entryY=0.496;entryDx=0;entryDy=0;dashed=1;entryPerimeter=0;" parent="13" target="26" edge="1"><mxGeometry width="50" height="50" relative="1" as="geometry"><mxPoint x="-30" y="184" as="sourcePoint"/><mxPoint x="58" y="154" as="targetPoint"/></mxGeometry></mxCell><mxCell id="39" value="Common East feature" style="swimlane;horizontal=0;whiteSpace=wrap;html=1;rotation=-180;" parent="1" vertex="1"><mxGeometry x="593" y="-110" width="160" height="370" as="geometry"/></mxCell><mxCell id="40" value="Manager" style="html=1;fillColor=#dae8fc;strokeColor=#6c8ebf;" parent="39" vertex="1"><mxGeometry x="13" y="313" width="110" height="40" as="geometry"/></mxCell><mxCell id="44" value="Plan" style="html=1;fillColor=#dae8fc;strokeColor=#6c8ebf;" parent="39" vertex="1"><mxGeometry x="13" y="263" width="110" height="40" as="geometry"/></mxCell><mxCell id="45" value="Recipe" style="html=1;fillColor=#dae8fc;strokeColor=#6c8ebf;" parent="39" vertex="1"><mxGeometry x="13" y="213" width="110" height="40" as="geometry"/></mxCell><mxCell id="46" value="Processor" style="html=1;fillColor=#dae8fc;strokeColor=#6c8ebf;" parent="39" vertex="1"><mxGeometry x="13" y="163" width="110" height="40" as="geometry"/></mxCell><mxCell id="47" value="LoopDetector" style="html=1;fillColor=#dae8fc;strokeColor=#6c8ebf;" parent="39" vertex="1"><mxGeometry x="13" y="113" width="110" height="40" as="geometry"/></mxCell><mxCell id="60" value="RecipeEndpoint" style="html=1;fillColor=#dae8fc;strokeColor=#6c8ebf;" parent="39" vertex="1"><mxGeometry x="13" y="63" width="110" height="40" as="geometry"/></mxCell><mxCell id="61" value="Command Executor" style="html=1;fillColor=#dae8fc;strokeColor=#6c8ebf;" parent="39" vertex="1"><mxGeometry x="13" y="13" width="110" height="40" as="geometry"/></mxCell><mxCell id="48" value="Time feature" style="swimlane;horizontal=0;whiteSpace=wrap;html=1;rotation=-180;" parent="1" vertex="1"><mxGeometry x="800" y="287" width="160" height="170" as="geometry"/></mxCell><mxCell id="49" value="DatesService" style="html=1;fillColor=#dae8fc;strokeColor=#6c8ebf;" parent="48" vertex="1"><mxGeometry x="13" y="113" width="110" height="40" as="geometry"/></mxCell><mxCell id="50" value="TimerService" style="html=1;fillColor=#dae8fc;strokeColor=#6c8ebf;" parent="48" vertex="1"><mxGeometry x="13" y="63" width="110" height="40" as="geometry"/></mxCell><mxCell id="98" value="SleepService" style="html=1;fillColor=#dae8fc;strokeColor=#6c8ebf;" parent="48" vertex="1"><mxGeometry x="13" y="14" width="110" height="40" as="geometry"/></mxCell><mxCell id="54" value="Liveness feature" style="swimlane;horizontal=0;whiteSpace=wrap;html=1;rotation=-180;" parent="1" vertex="1"><mxGeometry x="800" y="147" width="160" height="130" as="geometry"/></mxCell><mxCell id="55" value="PingService" style="html=1;fillColor=#dae8fc;strokeColor=#6c8ebf;" parent="54" vertex="1"><mxGeometry x="13" y="73" width="110" height="40" as="geometry"/></mxCell><mxCell id="56" value="TimeoutService" style="html=1;fillColor=#dae8fc;strokeColor=#6c8ebf;" parent="54" vertex="1"><mxGeometry x="13" y="23" width="110" height="40" as="geometry"/></mxCell><mxCell id="74" value="" style="edgeStyle=orthogonalEdgeStyle;rounded=0;orthogonalLoop=1;jettySize=auto;html=1;endArrow=none;endFill=0;" parent="1" source="72" target="73" edge="1"><mxGeometry relative="1" as="geometry"/></mxCell><mxCell id="75" value="" style="edgeStyle=orthogonalEdgeStyle;rounded=0;orthogonalLoop=1;jettySize=auto;html=1;endArrow=none;endFill=0;" parent="1" source="63" target="64" edge="1"><mxGeometry relative="1" as="geometry"/></mxCell><mxCell id="76" value="" style="edgeStyle=orthogonalEdgeStyle;rounded=0;orthogonalLoop=1;jettySize=auto;html=1;endArrow=none;endFill=0;" parent="1" source="66" target="68" edge="1"><mxGeometry relative="1" as="geometry"/></mxCell><mxCell id="80" value="" style="endArrow=none;html=1;rounded=0;entryX=1;entryY=0.5;entryDx=0;entryDy=0;entryPerimeter=0;dashed=1;" parent="1" source="23" target="73" edge="1"><mxGeometry width="50" height="50" relative="1" as="geometry"><mxPoint x="260" y="10" as="sourcePoint"/><mxPoint x="310" y="-40" as="targetPoint"/></mxGeometry></mxCell><mxCell id="81" value="" style="endArrow=none;html=1;rounded=0;entryX=0;entryY=0.5;entryDx=0;entryDy=0;exitX=1;exitY=0.5;exitDx=0;exitDy=0;exitPerimeter=0;dashed=1;" parent="1" source="64" target="17" edge="1"><mxGeometry width="50" height="50" relative="1" as="geometry"><mxPoint x="260" y="50" as="sourcePoint"/><mxPoint x="310" as="targetPoint"/></mxGeometry></mxCell><mxCell id="82" value="" style="endArrow=none;html=1;rounded=0;exitX=1;exitY=0.5;exitDx=0;exitDy=0;exitPerimeter=0;dashed=1;" parent="1" source="68" target="24" edge="1"><mxGeometry width="50" height="50" relative="1" as="geometry"><mxPoint x="260" y="240" as="sourcePoint"/><mxPoint x="400" y="270" as="targetPoint"/></mxGeometry></mxCell><mxCell id="86" value="" style="endArrow=none;html=1;rounded=1;entryX=0;entryY=0.5;entryDx=0;entryDy=0;exitX=1.123;exitY=0.588;exitDx=0;exitDy=0;exitPerimeter=0;dashed=1;" parent="1" source="71" target="21" edge="1"><mxGeometry width="50" height="50" relative="1" as="geometry"><mxPoint x="260" y="360" as="sourcePoint"/><mxPoint x="310" y="310" as="targetPoint"/><Array as="points"><mxPoint x="340" y="335"/><mxPoint x="340" y="370"/><mxPoint x="340" y="373"/></Array></mxGeometry></mxCell><mxCell id="87" value="" style="endArrow=none;html=1;rounded=1;exitX=1;exitY=0.5;exitDx=0;exitDy=0;exitPerimeter=0;entryX=0;entryY=0.5;entryDx=0;entryDy=0;dashed=1;" parent="1" source="67" target="21" edge="1"><mxGeometry width="50" height="50" relative="1" as="geometry"><mxPoint x="330" y="400" as="sourcePoint"/><mxPoint x="380" y="350" as="targetPoint"/><Array as="points"><mxPoint x="340" y="395"/><mxPoint x="340" y="373"/></Array></mxGeometry></mxCell><mxCell id="88" value="" style="endArrow=none;html=1;rounded=1;exitX=1;exitY=0.5;exitDx=0;exitDy=0;exitPerimeter=0;entryX=0;entryY=0.5;entryDx=0;entryDy=0;dashed=1;" parent="1" source="69" target="21" edge="1"><mxGeometry width="50" height="50" relative="1" as="geometry"><mxPoint x="320" y="450" as="sourcePoint"/><mxPoint x="370" y="400" as="targetPoint"/><Array as="points"><mxPoint x="340" y="425"/><mxPoint x="340" y="373"/></Array></mxGeometry></mxCell><mxCell id="89" value="" style="endArrow=none;html=1;rounded=1;entryX=0;entryY=0.5;entryDx=0;entryDy=0;dashed=1;" parent="1" target="40" edge="1"><mxGeometry width="50" height="50" relative="1" as="geometry"><mxPoint x="520" y="420" as="sourcePoint"/><mxPoint x="418" y="383" as="targetPoint"/><Array as="points"><mxPoint x="560" y="420"/><mxPoint x="560" y="223"/></Array></mxGeometry></mxCell><mxCell id="95" value="" style="endArrow=none;html=1;rounded=0;entryX=0;entryY=0.5;entryDx=0;entryDy=0;dashed=1;" parent="1" target="16" edge="1"><mxGeometry width="50" height="50" relative="1" as="geometry"><mxPoint x="340" y="123" as="sourcePoint"/><mxPoint x="418" y="34" as="targetPoint"/></mxGeometry></mxCell><mxCell id="97" value="" style="endArrow=none;html=1;rounded=0;entryX=0;entryY=0.5;entryDx=0;entryDy=0;dashed=1;" parent="1" target="18" edge="1"><mxGeometry width="50" height="50" relative="1" as="geometry"><mxPoint x="340" y="-25" as="sourcePoint"/><mxPoint x="438" y="54" as="targetPoint"/></mxGeometry></mxCell><mxCell id="99" value="PSR 15 - Compliance" style="swimlane;horizontal=0;whiteSpace=wrap;html=1;rotation=-180;" parent="1" vertex="1"><mxGeometry x="800" y="-110" width="160" height="210" as="geometry"/></mxCell><mxCell id="103" value="MiddlewareBowl" style="html=1;fillColor=#dae8fc;strokeColor=#6c8ebf;" parent="99" vertex="1"><mxGeometry x="13" y="160" width="110" height="40" as="geometry"/></mxCell><mxCell id="104" value="HandlerBowl" style="html=1;fillColor=#dae8fc;strokeColor=#6c8ebf;" parent="99" vertex="1"><mxGeometry x="13" y="110" width="110" height="40" as="geometry"/></mxCell><mxCell id="105" value="&lt;font style=&quot;font-size: 11px;&quot;&gt;FiberMiddlewareBowl&lt;/font&gt;" style="html=1;fillColor=#dae8fc;strokeColor=#6c8ebf;" parent="99" vertex="1"><mxGeometry x="13" y="60" width="110" height="40" as="geometry"/></mxCell><mxCell id="106" value="FiberHandlerBowl" style="html=1;fillColor=#dae8fc;strokeColor=#6c8ebf;" parent="99" vertex="1"><mxGeometry x="13" y="10" width="110" height="40" as="geometry"/></mxCell><mxCell id="109" value="PSR 15 - Handler" style="swimlane;horizontal=0;whiteSpace=wrap;html=1;rotation=-180;" vertex="1" parent="1"><mxGeometry x="593" y="327" width="160" height="130" as="geometry"/></mxCell><mxCell id="111" value="PSR15" style="html=1;fillColor=#dae8fc;strokeColor=#6c8ebf;" vertex="1" parent="109"><mxGeometry x="13" y="14" width="110" height="40" as="geometry"/></mxCell></root></mxGraphModel></diagram></mxfile>